<?xml version="1.0" standalone="no"?>
<!DOCTYPE svg PUBLIC "-//W3C//DTD SVG 20010904//EN"
 "http://www.w3.org/TR/2001/REC-SVG-20010904/DTD/svg10.dtd">
<svg version="1.0" xmlns="http://www.w3.org/2000/svg"
 width="512.000000pt" height="512.000000pt" viewBox="0 0 512.000000 512.000000"
 preserveAspectRatio="xMidYMid meet">
<metadata>
Created by potrace 1.11, written by Peter Selinger 2001-2013
</metadata>
<g transform="translate(0.000000,512.000000) scale(0.100000,-0.100000)"
fill="#000000" stroke="none">
<path d="M2350 4579 c-307 -32 -652 -155 -904 -323 -503 -337 -822 -847 -901
-1440 -23 -170 -17 -458 13 -626 87 -489 347 -928 732 -1237 255 -205 540
-338 875 -410 123 -26 143 -27 395 -27 251 0 272 1 392 27 395 84 723 254
1004 519 651 616 823 1602 419 2408 -377 751 -1187 1194 -2025 1109z m391
-628 c253 -65 444 -246 530 -506 l24 -70 3 -780 c3 -886 4 -872 -73 -1030
-129 -265 -371 -419 -660 -419 -286 0 -528 151 -655 408 -83 170 -81 146 -78
1041 l3 780 24 70 c87 260 274 439 526 505 97 26 258 26 356 1z"/>
</g>
</svg>
